<svg xmlns="http://www.w3.org/2000/svg" viewBox="0 0 183.81 160.04"><path d="M2.64,1.09H0V.77H16.26V7.5H16c-.64-2.8-2.11-6.41-7.2-6.41H6.67v9.85c3.8-.12,4.38-2.39,4.56-4.32h.23v9h-.23c-.06-1-.32-4.29-4.56-4.38V21.37H9.35v.33H0v-.33H2.64Z"/><path d="M19.67,1.09H17V.77H32.66V5.82h-.23c-.88-2.38-2.15-4.73-6.12-4.73H23.7v9.64c1.73,0,4.32-.15,4.79-4.08h.23v8.58h-.23c-.44-4-3.18-4.15-4.79-4.18V21.37h4c3,0,5.11-1.38,6.46-5.55h.24V21.7H17v-.33h2.65Z"/><path d="M38.19,1.09H35.52V.77h5.55l1.8-.06c.73,0,1.5,0,1.73,0a11,11,0,0,1,11.09,11c0,4.73-3.56,10.2-11.09,10.2l-1.76-.06-1.68-.06H35.52v-.33h2.67Zm4,20.28a23.36,23.36,0,0,0,2.38.12,5.24,5.24,0,0,0,4.53-1.94c1.65-2,2-4.85,2-8.17C51.1,5.29,50,1,44.37,1c-.18,0-.91,0-2.15.09Z"/><path d="M60,1.09H57.33V.77H73V5.82h-.23c-.88-2.38-2.15-4.73-6.12-4.73H64v9.64c1.73,0,4.32-.15,4.79-4.08H69v8.58H68.8c-.44-4-3.18-4.15-4.79-4.18V21.37h4c3,0,5.11-1.38,6.47-5.55h.23V21.7H57.33v-.33H60Z"/><path d="M78.44,1.09H75.8V.77h5.11L82.65.71c.73,0,1.47,0,1.7,0a10.11,10.11,0,0,1,5.5,1.42,4.91,4.91,0,0,1,2.15,4c0,2.29-2.21,3.94-5.18,4.56v.08c1.91.3,6,.92,6,6.06,0,3.53.18,4.73,1.65,4.73a2.54,2.54,0,0,0,1.64-.7l.24.32a3.71,3.71,0,0,1-2.68.82c-5,0-5.11-3.56-5.2-6-.12-3.49-.18-5.11-3.15-5.11H82.47V21.37h2.68v.33H75.8v-.33h2.64Zm4,9.44h2.85c.91,0,2.71,0,2.71-4.47a6.52,6.52,0,0,0-.62-3.27A3.06,3.06,0,0,0,84.29,1c-.73,0-1.41.06-1.82.09Z"/><path d="M104.58,0h.21l8.58,21.37h2.09v.33H106.2v-.33h2.85l-2.85-7.26H99.32l-2.85,7.26H99v.33H94v-.33h2.08Zm1.47,13.79-3.29-8.38-3.29,8.38Z"/><path d="M120.58,1.09a6.06,6.06,0,0,0-4.85,2.09,9.09,9.09,0,0,0-2,4.64h-.24v-7h18.23V7.82h-.23a9.18,9.18,0,0,0-2-4.64,6,6,0,0,0-4.82-2.09V21.37h2.64v.33H117.9v-.33h2.68Z"/><path d="M134.72,1.09h-2.65V.77h9.32v.32h-2.64V21.37h2.64v.33h-9.32v-.33h2.65Z"/><path d="M145.8,3.35A10,10,0,0,1,152.74.24c5.33,0,10.15,5,10.15,11,0,5.77-4.53,11-10.09,11-4.91,0-10.11-4.35-10.11-11A11.9,11.9,0,0,1,145.8,3.35Zm11.12-.68c-.44-.82-1.35-2.11-4.14-2.11-2.15,0-3.33.73-4.06,2-1.44,2.5-1.47,7.64-1.47,8.7,0,2.62.32,6.35,1.38,8.5a5.12,5.12,0,0,0,8.44-.15c.85-1.41,1.26-4,1.26-8.5C158.33,7.06,157.74,4.18,156.92,2.67Z"/><path d="M166.68,1.09H164V.77h6.15l10,14.23V1.09h-2.68V.77h5.73v.32h-2.67V21.93h-.24L167.06,3.24V21.37h2.68v.33H164v-.33h2.65Z"/><path d="M3.12,28.46H0v-.38H19.17V36h-.28c-.76-3.3-2.49-7.56-8.49-7.56H7.87V40.07c4.47-.13,5.17-2.8,5.37-5.09h.28V45.62h-.28c-.06-1.15-.38-5.06-5.37-5.16V52.38H11v.38H0v-.38H3.12Z"/><path d="M23.12,28.46H20v-.38h6c.31,0,1.18,0,2-.07s1.74,0,2,0a12,12,0,0,1,6.49,1.67,5.78,5.78,0,0,1,2.53,4.68c0,2.7-2.6,4.64-6.1,5.37v.1c2.25.35,7.07,1.08,7.07,7.15,0,4.16.21,5.58,1.94,5.58A3,3,0,0,0,44,51.69l.28.38a4.39,4.39,0,0,1-3.16,1c-5.89,0-6-4.2-6.13-7-.14-4.13-.21-6-3.71-6H27.87V52.38H31v.38H20v-.38h3.12Zm4.75,11.13h3.37c1.07,0,3.19,0,3.19-5.27a7.71,7.71,0,0,0-.73-3.85A3.6,3.6,0,0,0,30,28.35c-.87,0-1.67.07-2.16.11Z"/><path d="M54,27.18h.24l10.12,25.2h2.46v.38H55.85v-.38h3.37l-3.37-8.57H47.74l-3.36,8.57h3v.38h-6v-.38h2.46Zm1.73,16.26L51.8,33.56l-3.89,9.88Z"/><path d="M68.61,28.46H65.49v-.38h7.25L84.49,44.86V28.46H81.34v-.38H88.1v.38H84.94V53h-.28L69.06,31V52.38h3.16v.38H65.49v-.38h3.12Z"/><path d="M108.62,53h-.28a1.43,1.43,0,0,0-1.35-.59,7.9,7.9,0,0,0-2.19.46,17.84,17.84,0,0,1-4,.52l-1.94,2a3.73,3.73,0,0,1,1.87-.52,3,3,0,0,1,3,3.05,3.51,3.51,0,0,1-3.75,3.4,4.7,4.7,0,0,1-2.88-1.07l.28-.39a4.33,4.33,0,0,0,2.39.83c1.6,0,1.88-1.38,1.88-2.59s-.25-2.5-1.7-2.5a2.77,2.77,0,0,0-1.46.45L98,55.54l2-2.15C94.16,53.11,89.24,48.6,89.24,41c0-8.59,6.52-13.52,11.37-13.52a10.66,10.66,0,0,1,4.23,1,4.8,4.8,0,0,0,1.84.49,1.13,1.13,0,0,0,1.07-.63H108v7.18h-.28a12.76,12.76,0,0,0-2.84-5.93,5.57,5.57,0,0,0-4.3-1.77c-4.54,0-6,2.88-6,13.35,0,5.58.38,7.66,1.31,9.43C96.73,52,98,53,100.61,53c3.92,0,6.55-2.32,7.73-7.28h.28Z"/><path d="M120.1,27.18h.24l10.12,25.2h2.46v.38H122v-.38h3.37L122,43.81h-8.11l-3.36,8.57h3v.38h-6v-.38H110Zm1.73,16.26L118,33.56l-3.89,9.88Z"/><path d="M135,28.46h-3.12v-.38h11v.38h-3.12V52.38h3.12v.38h-11v-.38H135Z"/><path d="M144.57,44.27h.28c.62,5.2,4,8.73,7.73,8.73,2.6,0,5.76-1.31,5.76-4.61,0-2.94-2.33-4-6.73-6-3.12-1.45-6.21-2.84-6.21-7.27,0-4.06,3.13-7.67,7-7.67a8.74,8.74,0,0,1,3.39.8,3.8,3.8,0,0,0,1.22.31,1.18,1.18,0,0,0,1.18-1h.27v6.94h-.27c-.77-2.4-2.12-6.7-5.9-6.7-2.15,0-4.58,1.36-4.58,4.09,0,3.33,2.92,4.58,6.28,6.07,5,2.22,6.87,3.85,6.87,7.35a8.68,8.68,0,0,1-4.2,7,7.67,7.67,0,0,1-4.09,1.08,9.92,9.92,0,0,1-3.64-.63,7.56,7.56,0,0,0-2.67-.69,1.42,1.42,0,0,0-1.42,1h-.28Z"/><path d="M165.76,28.46h-3.13v-.38h18.45v6h-.28c-1-2.81-2.53-5.58-7.21-5.58H170.5V39.83c2.05,0,5.1-.18,5.65-4.82h.28V45.13h-.28c-.51-4.75-3.74-4.89-5.65-4.92V52.38h4.68c3.58,0,6-1.63,7.63-6.55h.28v6.93H162.63v-.38h3.13Z"/><path d="M3.9,59.56H0v-.47H8.1c.43,0,1.51,0,2.62-.08s2.19,0,2.53,0A16,16,0,0,1,29.41,74.91c0,6.91-5.19,14.88-16.16,14.88-.39,0-1.5,0-2.57-.08s-2.1-.09-2.45-.09H0v-.47H3.9ZM9.78,89.15a34.13,34.13,0,0,0,3.47.17,7.63,7.63,0,0,0,6.6-2.83c2.4-2.92,2.87-7.08,2.87-11.92,0-8.87-1.63-15.13-9.81-15.13-.26,0-1.33,0-3.13.12Z"/><path d="M57.32,80.57c0,1.55,0,4.46-1.84,6.65-2.36,2.74-5.58,3.17-8.06,3.17-9,0-11.92-3.94-11.92-11.32V59.56H31.6v-.47H45.23v.47H41.37V81.09c0,5.74,2.23,8.83,6.56,8.83a9,9,0,0,0,7.12-3c1.33-1.59,1.71-3.43,1.71-6.86V59.56h-3.9v-.47h8.36v.47h-3.9Z"/><path d="M77.73,59.56H73.87v-.47h6.34c.48,0,1.76,0,3.05-.08s2.57,0,3,0C94.92,59,99,63.59,99,69c0,5.57-4.5,9-11,9a7.74,7.74,0,0,1-4.42-1.32V89.15h3.9v.47H73.87v-.47h3.86ZM83.6,75.94a6.55,6.55,0,0,0,4,1.5c3.86,0,5.06-3.38,5.06-8.7a14.53,14.53,0,0,0-1.12-6c-1-2.15-2.57-3.3-5.53-3.3-.9,0-1.8.08-2.44.12Z"/><path d="M104.69,59.56h-3.85v-.47h7.45c.39,0,1.46,0,2.53-.08s2.15,0,2.49,0c1.67,0,5.4.22,8,2.06a7.18,7.18,0,0,1,3.13,5.79c0,3.34-3.22,5.74-7.55,6.64v.13c2.79.43,8.75,1.33,8.75,8.83,0,5.15.26,6.91,2.4,6.91a3.71,3.71,0,0,0,2.4-1l.34.47a5.36,5.36,0,0,1-3.9,1.2c-7.29,0-7.46-5.19-7.59-8.7-.17-5.1-.26-7.46-4.58-7.46h-4.16V89.15h3.9v.47H100.84v-.47h3.85Zm5.88,13.77h4.16c1.32,0,3.94,0,3.94-6.52a9.4,9.4,0,0,0-.9-4.76c-.94-2-2.53-2.61-4.55-2.61-1.07,0-2,.08-2.65.12Z"/><path d="M134.14,59.56h-3.85v-.47H153.1v7.38h-.35c-1.29-3.48-3.13-6.91-8.92-6.91H140V73.62c2.53,0,6.3-.21,7-6h.34V80.19H147c-.65-5.88-4.63-6-7-6.09V89.15h5.79c4.41,0,7.46-2,9.43-8.11h.34v8.58H130.29v-.47h3.85Z"/><path d="M166.77,59.56a8.89,8.89,0,0,0-7.07,3,13.28,13.28,0,0,0-3,6.77h-.34V59.09H183V69.38h-.35a13.34,13.34,0,0,0-2.95-6.77,8.83,8.83,0,0,0-7-3V89.15h3.86v.47H162.87v-.47h3.9Z"/><path d="M4.08,127.9H0v-.5H25.07v10.39h-.36c-1-4.31-3.27-9.89-11.11-9.89H10.29v15.19c5.85-.18,6.75-3.67,7-6.67h.36v13.93h-.36c-.09-1.5-.5-6.62-7-6.76v15.59h4.13v.5H0v-.5H4.08Z"/><path d="M30.33,127.9H26.25v-.5H50.37v7.8H50c-1.36-3.67-3.31-7.3-9.43-7.3h-4v14.88c2.67-.05,6.66-.24,7.39-6.31h.36v13.24h-.36c-.68-6.21-4.9-6.39-7.39-6.44v15.91h6.12c4.67,0,7.89-2.13,10-8.56H53v9.06H26.25v-.5h4.08Z"/><path d="M58.66,127.9H54.58v-.5H65.41L72,149.71l7.75-22.31h10.7v.5H86.36v31.28h4.13v.5H76.07v-.5h4.08V127.9L69,160h-.36L59.25,127.9v31.28h4.13v.5h-8.8v-.5h4.08Z"/><path d="M95.88,127.9H91.8v-.5h14.37v.5h-4.08v31.28h4.08v.5H91.8v-.5h4.08Z"/><path d="M111.56,127.9h-4.07v-.5H117l15.37,21.95V127.9h-4.12v-.5H137v.5h-4.12V160h-.37l-20.4-28.83v28h4.13v.5h-8.79v-.5h4.07Z"/><path d="M142.07,127.9H138v-.5h14.37v.5h-4.08v31.28h4.08v.5H138v-.5h4.07Z"/><path d="M157.76,127.9h-4.08v-.5h9.48l15.37,21.95V127.9H174.4v-.5h8.84v.5h-4.12V160h-.37l-20.4-28.83v28h4.12v.5h-8.79v-.5h4.08Z"/><path d="M13.35,94.93h.26L24.4,121.82H27v.4H15.38v-.4H19l-3.59-9.14H6.73l-3.59,9.14H6.36v.4H0v-.4H2.62Zm1.85,17.34-4.15-10.53L6.91,112.27Z"/><path d="M39.42,96.3H36.09v-.41h5.47c.41,0,1.52,0,2.63-.07s2.21,0,2.58,0c7.47,0,11,4,11,8.61,0,4.81-3.88,7.73-9.5,7.73A6.63,6.63,0,0,1,44.48,111v10.84h3.37v.4H36.09v-.4h3.33Zm5.06,14.13A5.71,5.71,0,0,0,48,111.72c3.33,0,4.36-2.92,4.36-7.5a12.59,12.59,0,0,0-1-5.18c-.85-1.85-2.22-2.85-4.77-2.85-.78,0-1.55.07-2.11.11Z"/><path d="M63.71,99.15a12.56,12.56,0,0,1,8.73-3.92c6.69,0,12.75,6.25,12.75,13.86,0,7.25-5.69,13.8-12.68,13.8-6.18,0-12.72-5.48-12.72-13.83A15,15,0,0,1,63.71,99.15Zm14-.86c-.56-1-1.7-2.65-5.22-2.65-2.7,0-4.18.92-5.1,2.51-1.81,3.14-1.85,9.61-1.85,10.94,0,3.29.41,8,1.74,10.69,1.26,2.48,3.95,2.7,5.29,2.7a5.6,5.6,0,0,0,5.32-2.88c1.07-1.78,1.59-5,1.59-10.69C79.46,103.81,78.72,100.18,77.69,98.29Z"/><path d="M90.07,96.3H86.75v-.41h6.43c.33,0,1.26,0,2.18-.07s1.85,0,2.15,0c1.44,0,4.66.18,6.91,1.77a6.15,6.15,0,0,1,2.7,5c0,2.88-2.77,5-6.51,5.73v.11c2.41.37,7.54,1.15,7.54,7.62,0,4.44.23,5.95,2.08,5.95a3.17,3.17,0,0,0,2.06-.88l.3.4a4.62,4.62,0,0,1-3.36,1c-6.29,0-6.44-4.48-6.55-7.51-.14-4.4-.22-6.43-4-6.43H95.14v13.24H98.5v.4H86.75v-.4h3.32Zm5.07,11.87h3.59c1.14,0,3.4,0,3.4-5.62a8,8,0,0,0-.78-4.1,3.83,3.83,0,0,0-3.92-2.26c-.92,0-1.77.07-2.29.11Z"/><path d="M120.32,96.3a7.64,7.64,0,0,0-6.1,2.63,11.5,11.5,0,0,0-2.55,5.84h-.3V95.89H134.3v8.88H134a11.42,11.42,0,0,0-2.55-5.84,7.57,7.57,0,0,0-6.07-2.63v25.52h3.33v.4H117v-.4h3.36Z"/><path d="M138.07,96.3h-3.33v-.41h19.67v6.37h-.29c-1.11-3-2.7-6-7.69-6h-3.3v12.13c2.19,0,5.44-.19,6-5.14h.3v10.79h-.3c-.55-5.06-4-5.21-6-5.24v13h5c3.81,0,6.43-1.74,8.13-7h.3v7.4H134.74v-.4h3.33Z"/><path d="M161.29,96.3H158v-.41h6.44c.33,0,1.26,0,2.18-.07s1.85,0,2.14,0c1.45,0,4.66.18,6.92,1.77a6.17,6.17,0,0,1,2.7,5c0,2.88-2.78,5-6.51,5.73v.11c2.4.37,7.54,1.15,7.54,7.62,0,4.44.22,5.95,2.08,5.95a3.2,3.2,0,0,0,2.06-.88l.3.4a4.66,4.66,0,0,1-3.36,1c-6.29,0-6.44-4.48-6.55-7.51-.15-4.4-.22-6.43-4-6.43h-3.58v13.24h3.36v.4H158v-.4h3.33Zm5.07,11.87h3.58c1.15,0,3.41,0,3.41-5.62a8.12,8.12,0,0,0-.78-4.1,3.83,3.83,0,0,0-3.92-2.26c-.93,0-1.78.07-2.29.11Z"/></svg>